<mxfile host="app.diagrams.net" agent="Mozilla/5.0 (Windows NT 10.0; Win64; x64) AppleWebKit/537.36 (KHTML, like Gecko) Chrome/134.0.0.0 Safari/537.36" version="26.1.3">
  <diagram name="Page-1" id="4O5L_7KRdwXFXCKku0eL">
    <mxGraphModel dx="1434" dy="780" grid="1" gridSize="10" guides="1" tooltips="1" connect="1" arrows="1" fold="1" page="1" pageScale="1" pageWidth="827" pageHeight="1169" math="0" shadow="0">
      <root>
        <mxCell id="0" />
        <mxCell id="1" parent="0" />
        <mxCell id="233fUiOhUAbQiIOwQ_-8-1" value="" style="rounded=1;whiteSpace=wrap;html=1;fillColor=#d5e8d4;strokeColor=#82b366;" parent="1" vertex="1">
          <mxGeometry x="160" y="160" width="480" height="200" as="geometry" />
        </mxCell>
        <mxCell id="233fUiOhUAbQiIOwQ_-8-2" value="&lt;font&gt;Presentation&lt;/font&gt;" style="text;html=1;align=left;verticalAlign=middle;whiteSpace=wrap;rounded=0;fontSize=30;fontColor=light-dark(#000000,#EDEDED);" parent="1" vertex="1">
          <mxGeometry x="200" y="180" width="190" height="30" as="geometry" />
        </mxCell>
        <mxCell id="233fUiOhUAbQiIOwQ_-8-10" value="" style="edgeStyle=orthogonalEdgeStyle;rounded=0;orthogonalLoop=1;jettySize=auto;html=1;" parent="1" source="233fUiOhUAbQiIOwQ_-8-3" target="233fUiOhUAbQiIOwQ_-8-4" edge="1">
          <mxGeometry relative="1" as="geometry" />
        </mxCell>
        <mxCell id="233fUiOhUAbQiIOwQ_-8-3" value="&lt;font style=&quot;font-size: 20px;&quot;&gt;UI Elements&lt;/font&gt;" style="rounded=1;whiteSpace=wrap;html=1;fillColor=#008a00;fontColor=#ffffff;strokeColor=#005700;" parent="1" vertex="1">
          <mxGeometry x="200" y="220" width="400" height="45" as="geometry" />
        </mxCell>
        <mxCell id="233fUiOhUAbQiIOwQ_-8-4" value="&lt;font style=&quot;font-size: 20px;&quot;&gt;ViewModels&lt;/font&gt;" style="rounded=1;whiteSpace=wrap;html=1;fillColor=#60a917;fontColor=#ffffff;strokeColor=#2D7600;" parent="1" vertex="1">
          <mxGeometry x="200" y="290" width="400" height="45" as="geometry" />
        </mxCell>
        <mxCell id="233fUiOhUAbQiIOwQ_-8-20" value="" style="rounded=1;whiteSpace=wrap;html=1;fillColor=#dae8fc;strokeColor=#6c8ebf;" parent="1" vertex="1">
          <mxGeometry x="160" y="400" width="480" height="120" as="geometry" />
        </mxCell>
        <mxCell id="233fUiOhUAbQiIOwQ_-8-21" value="&lt;font&gt;Domain Layer&lt;/font&gt;" style="text;html=1;align=left;verticalAlign=middle;whiteSpace=wrap;rounded=0;fontSize=30;fontColor=light-dark(#000000,#EDEDED);" parent="1" vertex="1">
          <mxGeometry x="200" y="420" width="220" height="30" as="geometry" />
        </mxCell>
        <mxCell id="233fUiOhUAbQiIOwQ_-8-23" value="&lt;font style=&quot;font-size: 20px;&quot;&gt;UseCases&lt;/font&gt;" style="rounded=1;whiteSpace=wrap;html=1;fillColor=#1ba1e2;fontColor=#ffffff;strokeColor=#006EAF;" parent="1" vertex="1">
          <mxGeometry x="200" y="460" width="400" height="45" as="geometry" />
        </mxCell>
        <mxCell id="233fUiOhUAbQiIOwQ_-8-25" value="" style="rounded=1;whiteSpace=wrap;html=1;fillColor=#f8cecc;strokeColor=#b85450;" parent="1" vertex="1">
          <mxGeometry x="160" y="560" width="480" height="200" as="geometry" />
        </mxCell>
        <mxCell id="233fUiOhUAbQiIOwQ_-8-26" value="&lt;font&gt;Data Layer&lt;/font&gt;" style="text;html=1;align=left;verticalAlign=middle;whiteSpace=wrap;rounded=0;fontSize=30;fontColor=light-dark(#000000,#EDEDED);" parent="1" vertex="1">
          <mxGeometry x="200" y="580" width="220" height="30" as="geometry" />
        </mxCell>
        <mxCell id="233fUiOhUAbQiIOwQ_-8-27" value="" style="edgeStyle=orthogonalEdgeStyle;rounded=0;orthogonalLoop=1;jettySize=auto;html=1;" parent="1" source="233fUiOhUAbQiIOwQ_-8-28" target="233fUiOhUAbQiIOwQ_-8-29" edge="1">
          <mxGeometry relative="1" as="geometry" />
        </mxCell>
        <mxCell id="233fUiOhUAbQiIOwQ_-8-28" value="&lt;font style=&quot;font-size: 20px;&quot;&gt;Repositories&lt;/font&gt;" style="rounded=1;whiteSpace=wrap;html=1;fillColor=#d80073;fontColor=#ffffff;strokeColor=#A50040;" parent="1" vertex="1">
          <mxGeometry x="200" y="620" width="400" height="45" as="geometry" />
        </mxCell>
        <mxCell id="233fUiOhUAbQiIOwQ_-8-29" value="&lt;font style=&quot;font-size: 20px;&quot;&gt;Data Sources&lt;/font&gt;" style="rounded=1;whiteSpace=wrap;html=1;fillColor=#a20025;fontColor=#ffffff;strokeColor=#6F0000;" parent="1" vertex="1">
          <mxGeometry x="200" y="690" width="400" height="45" as="geometry" />
        </mxCell>
        <mxCell id="233fUiOhUAbQiIOwQ_-8-31" value="" style="endArrow=classic;html=1;rounded=0;exitX=0.5;exitY=1;exitDx=0;exitDy=0;entryX=0.5;entryY=0;entryDx=0;entryDy=0;" parent="1" source="233fUiOhUAbQiIOwQ_-8-4" target="233fUiOhUAbQiIOwQ_-8-23" edge="1">
          <mxGeometry width="50" height="50" relative="1" as="geometry">
            <mxPoint x="490" y="540" as="sourcePoint" />
            <mxPoint x="540" y="490" as="targetPoint" />
          </mxGeometry>
        </mxCell>
        <mxCell id="233fUiOhUAbQiIOwQ_-8-22" value="" style="edgeStyle=orthogonalEdgeStyle;rounded=0;orthogonalLoop=1;jettySize=auto;html=1;entryX=0.5;entryY=0;entryDx=0;entryDy=0;" parent="1" source="233fUiOhUAbQiIOwQ_-8-23" target="233fUiOhUAbQiIOwQ_-8-28" edge="1">
          <mxGeometry relative="1" as="geometry">
            <mxPoint x="400" y="550" as="targetPoint" />
          </mxGeometry>
        </mxCell>
      </root>
    </mxGraphModel>
  </diagram>
</mxfile>
